HIERARCHY
ROOT mixamorig:Hips
{
	OFFSET 0.000000 201.639420 0.000000
	CHANNELS 6 Xposition Yposition Zposition Xrotation Yrotation Zrotation
	JOINT mixamorig:Spine
	{
		OFFSET 0.006200 19.524994 -2.481800
		CHANNELS 3 Xrotation Yrotation Zrotation
		JOINT mixamorig:Spine1
		{
			OFFSET -0.000900 22.835007 -2.825400
			CHANNELS 3 Xrotation Yrotation Zrotation
			JOINT mixamorig:Spine2
			{
				OFFSET -0.020600 26.552490 -3.193300
				CHANNELS 3 Xrotation Yrotation Zrotation
				JOINT mixamorig:Neck
				{
					OFFSET -0.060000 30.701813 1.352200
					CHANNELS 3 Xrotation Yrotation Zrotation
					JOINT mixamorig:Head
					{
						OFFSET -0.087200 22.547607 3.670900
						CHANNELS 3 Xrotation Yrotation Zrotation
						JOINT mixamorig:HeadTop_End
						{
							OFFSET -0.830600 40.355194 7.893500
							CHANNELS 3 Xrotation Yrotation Zrotation
							End Site
							{
								OFFSET 0.000000 30.592346 0.000000
							}
						}
						JOINT mixamorig:RightEye
						{
							OFFSET -6.302100 18.118591 16.197100
							CHANNELS 3 Xrotation Yrotation Zrotation
							End Site
							{
								OFFSET 0.000000 30.592346 0.000000
							}
						}
						JOINT mixamorig:LeftEye
						{
							OFFSET 6.741500 18.382690 16.401899
							CHANNELS 3 Xrotation Yrotation Zrotation
							End Site
							{
								OFFSET 0.000000 30.592346 0.000000
							}
						}
					}
				}
				JOINT mixamorig:LeftShoulder
				{
					OFFSET 11.924900 18.230499 1.425400
					CHANNELS 3 Xrotation Yrotation Zrotation
					JOINT mixamorig:LeftArm
					{
						OFFSET 25.435989 -0.697632 -5.229300
						CHANNELS 3 Xrotation Yrotation Zrotation
						JOINT mixamorig:LeftForeArm
						{
							OFFSET 54.684776 0.000000 0.000000
							CHANNELS 3 Xrotation Yrotation Zrotation
							JOINT mixamorig:LeftHand
							{
								OFFSET 55.098175 0.000000 0.000000
								CHANNELS 3 Xrotation Yrotation Zrotation
								JOINT mixamorig:LeftHandMiddle1
								{
									OFFSET 23.369751 0.000000 0.000000
									CHANNELS 3 Xrotation Yrotation Zrotation
									JOINT mixamorig:LeftHandMiddle2
									{
										OFFSET 6.378677 0.000000 0.000000
										CHANNELS 3 Xrotation Yrotation Zrotation
										JOINT mixamorig:LeftHandMiddle3
										{
											OFFSET 6.148331 0.000000 0.000000
											CHANNELS 3 Xrotation Yrotation Zrotation
											JOINT mixamorig:LeftHandMiddle4
											{
												OFFSET 6.582504 0.000000 0.000000
												CHANNELS 3 Xrotation Yrotation Zrotation
												End Site
												{
													OFFSET -1.168900 6.395691 1.028606
												}
											}
										}
									}
								}
								JOINT mixamorig:LeftHandThumb1
								{
									OFFSET 7.235672 -3.848206 5.434273
									CHANNELS 3 Xrotation Yrotation Zrotation
									JOINT mixamorig:LeftHandThumb2
									{
										OFFSET 6.568451 -3.792297 3.792300
										CHANNELS 3 Xrotation Yrotation Zrotation
										JOINT mixamorig:LeftHandThumb3
										{
											OFFSET 6.063080 -3.500519 3.500518
											CHANNELS 3 Xrotation Yrotation Zrotation
											JOINT mixamorig:LeftHandThumb4
											{
												OFFSET 4.793182 -2.767334 2.767349
												CHANNELS 3 Xrotation Yrotation Zrotation
												End Site
												{
													OFFSET 0.101639 6.054260 1.275483
												}
											}
										}
									}
								}
								JOINT mixamorig:LeftHandIndex1
								{
									OFFSET 23.101074 -0.309540 4.992809
									CHANNELS 3 Xrotation Yrotation Zrotation
									JOINT mixamorig:LeftHandIndex2
									{
										OFFSET 6.226883 0.000000 0.000000
										CHANNELS 3 Xrotation Yrotation Zrotation
										JOINT mixamorig:LeftHandIndex3
										{
											OFFSET 6.094330 0.000000 0.000000
											CHANNELS 3 Xrotation Yrotation Zrotation
											JOINT mixamorig:LeftHandIndex4
											{
												OFFSET 5.482605 0.000000 0.000000
												CHANNELS 3 Xrotation Yrotation Zrotation
												End Site
												{
													OFFSET -1.427902 5.233032 0.797164
												}
											}
										}
									}
								}
								JOINT mixamorig:LeftHandRing1
								{
									OFFSET 22.299240 0.021149 -3.964172
									CHANNELS 3 Xrotation Yrotation Zrotation
									JOINT mixamorig:LeftHandRing2
									{
										OFFSET 6.321869 0.000000 0.000000
										CHANNELS 3 Xrotation Yrotation Zrotation
										JOINT mixamorig:LeftHandRing3
										{
											OFFSET 5.899796 0.000000 0.000000
											CHANNELS 3 Xrotation Yrotation Zrotation
											JOINT mixamorig:LeftHandRing4
											{
												OFFSET 6.517899 0.000000 0.000000
												CHANNELS 3 Xrotation Yrotation Zrotation
												End Site
												{
													OFFSET -1.637299 6.232208 0.980890
												}
											}
										}
									}
								}
								JOINT mixamorig:LeftHandPinky1
								{
									OFFSET 20.463791 -0.302338 -8.562233
									CHANNELS 3 Xrotation Yrotation Zrotation
									JOINT mixamorig:LeftHandPinky2
									{
										OFFSET 6.908646 0.000000 0.000000
										CHANNELS 3 Xrotation Yrotation Zrotation
										JOINT mixamorig:LeftHandPinky3
										{
											OFFSET 4.622849 0.000000 0.000000
											CHANNELS 3 Xrotation Yrotation Zrotation
											JOINT mixamorig:LeftHandPinky4
											{
												OFFSET 5.216080 0.000000 0.000000
												CHANNELS 3 Xrotation Yrotation Zrotation
												End Site
												{
													OFFSET -0.606308 5.116241 0.814926
												}
											}
										}
									}
								}
							}
						}
					}
				}
				JOINT mixamorig:RightShoulder
				{
					OFFSET -12.001300 18.284088 1.348900
					CHANNELS 3 Xrotation Yrotation Zrotation
					JOINT mixamorig:RightArm
					{
						OFFSET -25.308500 -0.751312 -5.164599
						CHANNELS 3 Xrotation Yrotation Zrotation
						JOINT mixamorig:RightForeArm
						{
							OFFSET -54.684429 0.000000 0.000000
							CHANNELS 3 Xrotation Yrotation Zrotation
							JOINT mixamorig:RightHand
							{
								OFFSET -55.150291 0.000000 0.000000
								CHANNELS 3 Xrotation Yrotation Zrotation
								JOINT mixamorig:RightHandMiddle1
								{
									OFFSET -23.317566 0.000000 0.000000
									CHANNELS 3 Xrotation Yrotation Zrotation
									JOINT mixamorig:RightHandMiddle2
									{
										OFFSET -6.378403 0.000000 0.000000
										CHANNELS 3 Xrotation Yrotation Zrotation
										JOINT mixamorig:RightHandMiddle3
										{
											OFFSET -6.148193 0.000000 0.000000
											CHANNELS 3 Xrotation Yrotation Zrotation
											JOINT mixamorig:RightHandMiddle4
											{
												OFFSET -6.583389 0.000000 0.000000
												CHANNELS 3 Xrotation Yrotation Zrotation
												End Site
												{
													OFFSET 1.171692 6.395905 1.029786
												}
											}
										}
									}
								}
								JOINT mixamorig:RightHandThumb1
								{
									OFFSET -7.190521 -3.860474 5.435846
									CHANNELS 3 Xrotation Yrotation Zrotation
									JOINT mixamorig:RightHandThumb2
									{
										OFFSET -6.567429 -3.791718 3.791708
										CHANNELS 3 Xrotation Yrotation Zrotation
										JOINT mixamorig:RightHandThumb3
										{
											OFFSET -6.062469 -3.500153 3.500166
											CHANNELS 3 Xrotation Yrotation Zrotation
											JOINT mixamorig:RightHandThumb4
											{
												OFFSET -4.792618 -2.767029 2.767022
												CHANNELS 3 Xrotation Yrotation Zrotation
												End Site
												{
													OFFSET -0.100327 6.053253 1.276754
												}
											}
										}
									}
								}
								JOINT mixamorig:RightHandIndex1
								{
									OFFSET -23.048981 -0.310791 4.992554
									CHANNELS 3 Xrotation Yrotation Zrotation
									JOINT mixamorig:RightHandIndex2
									{
										OFFSET -6.227539 0.000000 0.000000
										CHANNELS 3 Xrotation Yrotation Zrotation
										JOINT mixamorig:RightHandIndex3
										{
											OFFSET -6.095047 0.000000 0.000000
											CHANNELS 3 Xrotation Yrotation Zrotation
											JOINT mixamorig:RightHandIndex4
											{
												OFFSET -5.484772 0.000000 0.000000
												CHANNELS 3 Xrotation Yrotation Zrotation
												End Site
												{
													OFFSET 1.420593 5.237305 0.797056
												}
											}
										}
									}
								}
								JOINT mixamorig:RightHandRing1
								{
									OFFSET -22.246323 0.020569 -3.963762
									CHANNELS 3 Xrotation Yrotation Zrotation
									JOINT mixamorig:RightHandRing2
									{
										OFFSET -6.322128 0.000000 0.000000
										CHANNELS 3 Xrotation Yrotation Zrotation
										JOINT mixamorig:RightHandRing3
										{
											OFFSET -5.900024 0.000000 0.000000
											CHANNELS 3 Xrotation Yrotation Zrotation
											JOINT mixamorig:RightHandRing4
											{
												OFFSET -6.518356 0.000000 0.000000
												CHANNELS 3 Xrotation Yrotation Zrotation
												End Site
												{
													OFFSET 1.636398 6.232697 0.982186
												}
											}
										}
									}
								}
								JOINT mixamorig:RightHandPinky1
								{
									OFFSET -20.411011 -0.303314 -8.561701
									CHANNELS 3 Xrotation Yrotation Zrotation
									JOINT mixamorig:RightHandPinky2
									{
										OFFSET -6.907349 0.000000 0.000000
										CHANNELS 3 Xrotation Yrotation Zrotation
										JOINT mixamorig:RightHandPinky3
										{
											OFFSET -4.623840 0.000000 0.000000
											CHANNELS 3 Xrotation Yrotation Zrotation
											JOINT mixamorig:RightHandPinky4
											{
												OFFSET -5.218353 0.000000 0.000000
												CHANNELS 3 Xrotation Yrotation Zrotation
												End Site
												{
													OFFSET 0.602097 5.118835 0.816273
												}
											}
										}
									}
								}
							}
						}
					}
				}
			}
		}
	}
	JOINT mixamorig:LeftUpLeg
	{
		OFFSET 18.168400 -13.561905 -0.039000
		CHANNELS 3 Xrotation Yrotation Zrotation
		JOINT mixamorig:LeftLeg
		{
			OFFSET 0.577358 -80.825211 -3.695000
			CHANNELS 3 Xrotation Yrotation Zrotation
			JOINT mixamorig:LeftFoot
			{
				OFFSET -0.577356 -83.370262 -6.520700
				CHANNELS 3 Xrotation Yrotation Zrotation
				JOINT mixamorig:LeftToeBase
				{
					OFFSET 0.750401 -20.798306 25.135401
					CHANNELS 3 Xrotation Yrotation Zrotation
					JOINT mixamorig:LeftToe_End
					{
						OFFSET -0.000500 0.001200 19.917799
						CHANNELS 3 Xrotation Yrotation Zrotation
						End Site
						{
							OFFSET 0.000000 19.917805 0.000000
						}
					}
				}
			}
		}
	}
	JOINT mixamorig:RightUpLeg
	{
		OFFSET -18.162500 -13.585098 -0.041000
		CHANNELS 3 Xrotation Yrotation Zrotation
		JOINT mixamorig:RightLeg
		{
			OFFSET -0.595024 -80.945297 -3.631900
			CHANNELS 3 Xrotation Yrotation Zrotation
			JOINT mixamorig:RightFoot
			{
				OFFSET 0.595024 -83.218193 -6.561200
				CHANNELS 3 Xrotation Yrotation Zrotation
				JOINT mixamorig:RightToeBase
				{
					OFFSET -0.753601 -20.807106 25.115000
					CHANNELS 3 Xrotation Yrotation Zrotation
					JOINT mixamorig:RightToe_End
					{
						OFFSET 0.000299 0.001700 19.918200
						CHANNELS 3 Xrotation Yrotation Zrotation
						End Site
						{
							OFFSET 0.000000 19.918203 0.000000
						}
					}
				}
			}
		}
	}
}
MOTION
Frames: 6
Frame Time: 0.033333
72.012421 157.852463 180.444611 -17.398633 63.693693 16.732222 3.834789 2.431310 0.241776 7.650590 4.940262 0.617641 7.650591 4.940263 0.617640 3.538693 -4.654330 3.427802 0.266394 -15.026319 -2.307074 -0.000001 0.000001 -0.000000 -0.000001 0.000001 -0.000000 -0.000001 0.000001 -0.000000 4.647654 -3.832314 9.311220 -66.423180 -53.091552 -25.233224 0.041735 -44.748763 0.152927 4.607366 -4.787364 1.525959 1.720861 6.485213 -9.792743 -0.760895 -2.378979 -28.374163 -0.000000 0.000002 0.000001 -0.000000 0.000002 0.000001 2.749071 2.734349 0.208699 2.250389 6.533961 2.271725 0.000004 0.000013 0.000001 0.000002 -0.000001 -0.000001 1.377885 4.706949 3.724418 0.164913 0.942462 -29.128677 -0.000002 0.000007 -0.000000 -0.000001 0.000002 -0.000000 0.435883 8.738418 -16.774420 -0.972747 -3.783065 -32.362369 -0.000000 0.000003 0.000000 0.000001 0.000003 -0.000001 -1.414628 10.229290 -15.696456 -2.326885 -8.198998 -45.180472 0.000003 -0.000002 0.000002 0.000000 0.000001 -0.000002 -11.053509 24.441893 -7.224798 -24.293151 14.842262 -0.849233 0.017248 49.506885 -0.169362 23.527997 -2.658025 -28.380848 -1.164553 -1.695288 -1.255771 0.509729 -2.718283 10.710346 0.000000 0.000000 -0.000006 -0.000004 0.000002 -0.000004 6.986122 -1.149657 0.808562 -0.994375 -0.164990 -1.849881 -0.000002 -0.000003 0.000000 -0.000002 -0.000001 -0.000001 1.682727 0.938607 -0.002812 0.799219 -3.245020 16.801024 -0.000005 0.000008 -0.000011 -0.000000 0.000000 0.000000 1.573789 -8.468896 3.458852 -1.050505 5.520579 12.716233 0.000001 0.000002 0.000001 -0.000002 -0.000001 0.000001 -0.964001 -12.176576 6.371700 -1.264374 7.897317 22.109321 -0.000002 0.000005 -0.000004 0.000002 -0.000000 0.000001 -31.722797 -7.903405 3.228189 81.910197 -1.942734 -2.741128 -42.262130 4.627868 -5.121501 -3.118891 -0.031283 0.069558 -0.000000 -0.000002 -0.000000 -41.744716 10.828007 -10.357243 81.371397 1.226062 2.681183 -27.884920 -15.094389 8.310497 0.080184 -0.109578 0.262283 0.000000 -0.000000 0.000000 
67.865059 143.415253 182.441681 -21.317078 63.646722 20.763872 5.862626 2.770575 0.618402 11.692581 5.715393 1.264370 11.692591 5.715412 1.264370 1.405907 -4.795098 4.890996 -4.922701 -14.877450 -0.262269 0.000001 -0.000001 0.000000 0.000001 -0.000001 0.000000 0.000001 -0.000001 0.000000 5.605486 -7.443582 5.891001 -70.490715 -40.327493 -25.724359 0.425951 -73.355740 0.456085 6.446753 -3.949178 0.617570 1.756248 7.817756 -7.094135 -0.659610 -2.310711 -25.694886 -0.000001 0.000002 0.000003 0.000001 -0.000003 0.000002 1.725338 2.566336 1.532261 2.237694 6.501525 2.289815 0.000004 0.000010 0.000006 0.000001 0.000002 -0.000000 1.224555 5.760761 7.197341 0.150044 0.920350 -27.522374 -0.000001 0.000004 0.000002 -0.000000 0.000001 -0.000001 0.514153 9.273564 -13.531297 -0.872274 -3.732632 -29.926361 0.000003 0.000002 -0.000001 0.000000 -0.000001 -0.000001 -1.195287 10.193818 -10.834089 -2.163017 -8.123473 -42.783680 0.000002 -0.000003 -0.000000 -0.000001 -0.000003 0.000001 -9.660903 25.300247 -8.877911 -15.953637 23.814617 -4.143181 0.081659 50.606422 -0.245750 20.593152 -0.132017 -29.562152 -1.164542 -1.695288 -1.255784 0.489223 -2.617294 10.703017 0.000001 0.000002 -0.000001 0.000001 -0.000000 0.000001 7.094339 -1.064836 1.075169 -0.994367 -0.164981 -1.849880 0.000000 -0.000001 0.000002 -0.000002 -0.000002 -0.000001 1.586662 0.907389 -2.576323 0.770079 -3.153691 16.803024 -0.000005 0.000006 -0.000010 -0.000002 -0.000000 -0.000003 1.573788 -8.468885 3.458837 -1.012432 5.364209 12.730032 -0.000001 -0.000002 0.000002 0.000001 0.000001 0.000001 -0.705899 -12.609810 6.469333 -1.241571 7.844343 22.116180 0.000000 0.000004 -0.000008 -0.000002 -0.000001 -0.000001 -45.600600 -4.302757 11.877068 101.762053 -1.342563 -2.986615 -30.376068 -7.207036 -5.250880 -17.707363 -0.059415 0.097580 -0.000000 -0.000002 0.000000 -53.088318 14.518180 -9.746536 98.845535 0.752308 2.911350 -19.307326 -9.779058 13.970477 -14.251104 -0.080934 0.226248 0.000000 -0.000002 0.000000 
64.451248 131.734192 183.368225 -24.035697 63.987254 23.421620 7.845052 2.636289 0.981889 15.656091 5.509373 1.782093 15.656086 5.509358 1.782095 0.841113 -5.160797 7.560746 -9.790409 -14.777659 0.935914 -0.000000 -0.000000 -0.000000 -0.000000 -0.000000 -0.000000 -0.000000 -0.000000 -0.000000 6.071090 -9.305212 4.923336 -61.050731 -35.128636 -20.124638 -3.428654 -92.636230 -3.452871 5.986544 -4.521047 0.211706 1.713786 8.745650 -5.226638 -0.588340 -2.261582 -23.844336 -0.000000 -0.000002 0.000005 -0.000002 0.000001 -0.000000 1.009427 2.435164 2.438358 2.228911 6.479163 2.302297 0.000008 0.000008 0.000006 0.000002 -0.000002 0.000001 1.044140 6.488394 9.598172 0.140132 0.904818 -26.412828 -0.000002 0.000003 -0.000000 -0.000000 -0.000003 0.000002 0.542102 9.647874 -11.287683 -0.801263 -3.696158 -28.243794 -0.000000 0.000005 -0.000003 -0.000000 0.000002 -0.000001 -1.016048 10.173107 -7.481824 -2.003897 -8.028933 -40.631252 -0.000001 -0.000002 0.000001 -0.000001 -0.000003 0.000001 -9.053639 25.772536 -3.476531 -8.476796 32.923516 -7.101054 0.083406 46.365554 -0.260850 11.822046 5.123102 -27.190951 -1.164544 -1.695282 -1.255772 0.434300 -2.346467 10.683527 0.000001 0.000001 -0.000009 0.000002 0.000000 -0.000001 7.377721 -0.840586 1.777984 -0.994365 -0.164974 -1.849880 -0.000003 -0.000003 -0.000000 0.000002 -0.000000 -0.000001 1.328940 0.900770 -4.814040 0.693244 -2.912885 16.808549 -0.000002 0.000007 -0.000008 0.000001 0.000000 -0.000003 1.573788 -8.468888 3.458828 -0.911892 4.951986 12.766844 -0.000001 -0.000001 0.000006 0.000000 0.000001 0.000000 -0.019852 -13.749107 6.744795 -1.181446 7.704686 22.134340 0.000003 0.000004 -0.000005 0.000000 0.000000 0.000000 -57.445825 -7.693984 11.325865 114.253540 -1.480823 -3.101105 -15.681343 -6.683077 -4.295741 -28.470479 0.122365 -2.560081 0.000000 -0.000002 0.000000 -60.732123 16.344183 -9.873427 109.096931 0.813203 3.002941 -16.501075 -5.724554 16.650939 -20.079055 -0.067139 0.213422 -0.000000 -0.000002 -0.000000 
61.575726 122.146042 184.258743 -23.077403 64.349814 23.380986 9.443837 2.303535 0.927251 18.860903 4.857815 1.658636 18.860900 4.857811 1.658633 1.349080 -5.588059 10.238203 -14.126423 -15.694006 1.709128 0.000001 -0.000000 -0.000002 0.000001 -0.000000 -0.000002 0.000001 -0.000000 -0.000002 6.392655 -10.426929 5.024369 -48.389404 -34.901140 -14.962807 -1.115745 -99.172277 -1.170882 1.330533 -8.879277 -1.205544 1.683787 9.092829 -4.528719 -0.561478 -2.242805 -23.153848 0.000001 -0.000004 0.000002 -0.000000 0.000001 -0.000001 0.740531 2.383094 2.774690 2.225631 6.470804 2.306963 0.000005 0.000011 0.000004 0.000001 0.000003 0.000001 0.961147 6.758940 10.494711 0.136513 0.898943 -25.998833 -0.000000 0.000003 -0.000001 -0.000002 0.000001 -0.000001 0.547007 9.788283 -10.449718 -0.774433 -3.682151 -27.615971 0.000003 0.000002 -0.000009 -0.000000 0.000001 -0.000005 -0.943276 10.166787 -6.232341 -1.860708 -7.915120 -38.887231 -0.000001 -0.000000 -0.000004 0.000000 0.000000 0.000003 -8.650120 25.094627 2.415864 -3.187399 41.597758 -9.154345 0.041685 38.691365 -0.242949 6.433800 9.054343 -23.485484 -1.164548 -1.695286 -1.255771 0.354892 -1.953933 10.655738 0.000000 0.000001 -0.000006 0.000001 -0.000000 -0.000000 7.773239 -0.521321 2.771345 -0.994372 -0.164981 -1.849882 -0.000001 -0.000002 0.000000 0.000000 -0.000000 -0.000001 0.953247 0.928480 -6.713429 0.584603 -2.572471 16.816899 -0.000001 0.000008 -0.000009 0.000001 -0.000001 0.000000 1.573787 -8.468879 3.458835 -0.769414 4.369296 12.820072 0.000001 -0.000002 0.000006 -0.000000 0.000000 -0.000002 0.965243 -15.352129 7.179494 -1.096406 7.507278 22.160250 0.000004 0.000004 -0.000005 0.000000 -0.000001 0.000001 -65.776313 -8.936618 10.963628 121.813104 -1.533337 -3.112426 -13.191924 -4.672057 -5.088834 -28.725972 0.173440 -3.427723 0.000000 -0.000000 0.000000 -66.855258 17.023569 -10.434714 116.253371 1.220942 3.076588 -22.014069 -5.135809 14.964661 -15.137859 -0.078832 0.224233 0.000000 -0.000000 -0.000000 
58.654270 114.048218 185.982834 -20.158617 64.438463 21.024403 10.920602 2.000400 0.784745 21.819895 4.319852 1.427214 21.819910 4.319876 1.427205 1.723967 -5.810719 11.783675 -18.302716 -17.071295 2.511378 0.000001 -0.000001 0.000002 0.000001 -0.000001 0.000002 0.000001 -0.000001 0.000002 6.664210 -11.274250 5.757474 -40.020903 -33.368073 -12.594776 -1.057074 -100.354610 -1.121347 0.880482 -13.491517 -3.851054 1.683789 9.092787 -4.528723 -0.561476 -2.242781 -23.153846 -0.000001 -0.000002 0.000003 -0.000000 -0.000000 0.000003 0.779797 2.359453 2.681386 2.190602 6.373118 2.275226 0.000006 0.000012 0.000005 0.000001 0.000000 0.000000 0.982983 6.638950 10.490185 0.153062 0.931624 -25.998482 -0.000001 0.000003 0.000002 -0.000001 -0.000000 0.000003 0.546999 9.788273 -10.449716 -0.774435 -3.682153 -27.615969 0.000003 0.000001 0.000003 0.000000 -0.000001 0.000002 -1.032961 10.436475 -6.835179 -1.739170 -7.793823 -37.461791 0.000001 0.000000 -0.000005 0.000000 -0.000001 0.000001 -7.582790 24.160990 3.460477 -1.164199 49.244329 -9.956075 0.035984 33.069498 -0.181943 6.873265 7.512535 -19.136387 -1.164549 -1.695288 -1.255772 0.260877 -1.487875 10.623449 -0.000001 0.000001 -0.000006 0.000000 -0.000000 -0.000002 8.219430 -0.153135 3.910038 -0.994369 -0.164980 -1.849886 -0.000001 -0.000001 0.000000 -0.000002 0.000000 0.000000 0.502630 0.989897 -8.271745 0.460045 -2.182232 16.827267 -0.000003 0.000009 -0.000009 -0.000000 -0.000000 -0.000003 1.573788 -8.468880 3.458836 -0.605535 3.701493 12.882846 -0.000001 -0.000002 0.000003 -0.000001 -0.000000 -0.000003 2.119181 -17.177125 7.744547 -0.998854 7.281013 22.190328 0.000003 0.000003 -0.000006 -0.000001 0.000000 -0.000002 -70.282271 -11.486170 11.481350 126.638592 -1.465460 -3.077914 -18.106449 -4.071712 -8.268058 -26.552190 -0.019253 -2.167750 0.000000 0.000001 0.000000 -74.133009 16.743464 -10.237575 122.132061 1.376217 3.097217 -24.487374 -3.943884 12.811463 -12.623897 -0.084570 0.230041 -0.000000 -0.000003 -0.000000 
56.184814 106.817734 188.161011 -16.099212 64.522407 17.380692 12.151276 1.615938 0.514548 24.289713 3.644813 0.964183 24.289724 3.644798 0.964188 1.533311 -5.837103 12.470941 -22.282818 -17.922625 3.077813 -0.000003 -0.000002 0.000001 -0.000003 -0.000002 0.000001 -0.000003 -0.000002 0.000001 6.877702 -11.748567 7.223552 -35.989660 -29.085944 -12.918396 -0.940911 -101.881376 -1.006355 3.449875 -12.907295 -5.737106 1.683788 9.092804 -4.528723 -0.561491 -2.242787 -23.153846 -0.000002 -0.000003 0.000001 -0.000001 0.000001 0.000002 0.886157 2.294979 2.428196 2.095442 6.108014 2.188888 0.000007 0.000012 0.000002 -0.000001 0.000001 0.000002 1.042111 6.313304 10.478155 0.197966 1.020239 -25.997612 -0.000003 0.000002 0.000003 -0.000000 0.000002 -0.000003 0.547002 9.788282 -10.449717 -0.774424 -3.682161 -27.615968 0.000001 0.000001 0.000001 -0.000002 -0.000001 0.000002 -1.244708 11.175059 -8.474395 -1.635766 -7.676469 -36.143708 -0.000001 -0.000005 -0.000003 0.000000 0.000002 -0.000001 -6.072184 23.663911 1.622990 -1.694410 55.331226 -9.100548 0.054411 31.717974 -0.164422 8.515712 5.120346 -16.762524 -1.164538 -1.695283 -1.255773 0.162079 -0.996465 10.590250 0.000002 0.000001 -0.000005 -0.000001 0.000000 0.000002 8.659008 0.213992 5.049821 -0.994368 -0.164980 -1.849875 -0.000002 -0.000001 -0.000002 0.000000 -0.000001 0.000000 0.018921 1.076557 -9.486188 0.335427 -1.792054 16.838488 -0.000003 0.000008 -0.000006 -0.000000 -0.000001 0.000000 1.573790 -8.468887 3.458841 -0.441044 3.033874 12.947483 -0.000001 -0.000002 0.000003 0.000000 -0.000000 -0.000002 3.303096 -18.986753 8.382942 -0.901222 7.054817 22.220747 0.000003 0.000003 -0.000001 0.000001 -0.000000 0.000000 -72.891376 -15.878880 12.307151 130.373544 -1.286233 -3.030604 -25.515848 -5.205609 -14.190296 -23.074032 -0.071086 0.105884 0.000000 -0.000001 -0.000000 -82.442938 16.032956 -10.138808 127.404079 1.282128 3.073669 -23.740752 -1.424201 10.446236 -13.056666 -0.083673 0.229007 -0.000000 0.000000 0.000000 
